<?xml version="1.0" encoding="UTF-8" standalone="no"?>
<!-- Created with Inkscape (http://www.inkscape.org/) -->

<svg
   xmlns:dc="http://purl.org/dc/elements/1.1/"
   xmlns:cc="http://creativecommons.org/ns#"
   xmlns:rdf="http://www.w3.org/1999/02/22-rdf-syntax-ns#"
   xmlns:svg="http://www.w3.org/2000/svg"
   xmlns="http://www.w3.org/2000/svg"
   xmlns:sodipodi="http://sodipodi.sourceforge.net/DTD/sodipodi-0.dtd"
   xmlns:inkscape="http://www.inkscape.org/namespaces/inkscape"
   width="1444.9778mm"
   height="812.79999mm"
   viewBox="0 0 5120 2879.9999"
   id="svg2"
   version="1.1"
   inkscape:version="0.91 r13725"
   sodipodi:docname="Futbol Club Barcelona.svg">
  <defs
     id="defs4" />
  <sodipodi:namedview
     id="base"
     pagecolor="#ffffff"
     bordercolor="#666666"
     borderopacity="1.0"
     inkscape:pageopacity="0.0"
     inkscape:pageshadow="2"
     inkscape:zoom="0.1376938"
     inkscape:cx="3068.4148"
     inkscape:cy="734.42512"
     inkscape:document-units="px"
     inkscape:current-layer="layer1"
     showgrid="false"
     fit-margin-top="0"
     fit-margin-left="0"
     fit-margin-right="0"
     fit-margin-bottom="0"
     inkscape:window-width="1920"
     inkscape:window-height="1027"
     inkscape:window-x="-4"
     inkscape:window-y="-4"
     inkscape:window-maximized="1" />
  <metadata
     id="metadata7">
    <rdf:RDF>
      <cc:Work
         rdf:about="">
        <dc:format>image/svg+xml</dc:format>
        <dc:type
           rdf:resource="http://purl.org/dc/dcmitype/StillImage" />
        <dc:title></dc:title>
      </cc:Work>
    </rdf:RDF>
  </metadata>
  <g
     inkscape:label="Capa 1"
     inkscape:groupmode="layer"
     id="layer1"
     transform="translate(2223.202,931.41686)">
    <g
       transform="translate(-1228.5173,-8030.2904)"
       id="g3751"
       inkscape:export-filename="C:\Users\alumne\Google Drive\personal\imagenes\Diseño grafico\Random\Barcelona Futbol Club.png"
       inkscape:export-xdpi="90"
       inkscape:export-ydpi="90">
      <rect
         style="fill:#000080;stroke:none"
         id="rect3635"
         width="5120"
         height="2880"
         x="-994.68469"
         y="7098.8735" />
      <path
         sodipodi:nodetypes="cccccccccccccc"
         inkscape:connector-curvature="0"
         id="path3347-5"
         d="m 520.80499,7348.161 -87.58649,128.011 c 335.82394,518.5152 47.71629,826.8373 -104.32788,1048.4091 l 111.1675,128.011 c -12.55779,532.1552 201.87881,928.1139 949.97658,1003.8759 l 178.5416,141.4858 175.173,-144.8546 c 733.7598,-79.1396 968.9477,-467.721 949.9766,-1007.2445 l 107.7988,-121.2736 c -194.5865,-276.105 -423.5832,-536.463 -104.4301,-1047.6691 l -80.8491,-114.5362 c -227.6122,67.0338 -447.2477,46.3228 -656.8986,-84.2178 -253.7763,175.173 -516.5358,175.173 -788.2785,0 -214.4746,131.1562 -435.78879,145.4539 -650.26341,70.003 z"
         style="opacity:1;fill:#edbc00;fill-opacity:1;fill-rule:evenodd;stroke:#000004;stroke-width:35.96431351;stroke-linecap:butt;stroke-linejoin:miter;stroke-miterlimit:4;stroke-dasharray:none;stroke-opacity:1" />
      <path
         id="rect4186"
         d="m 1169.382,7431.4385 c -153.9503,84.2455 -341.81282,113.3692 -567.62382,80.8412 124.9633,233.801 157.89233,433.7329 35.36932,779.8603 l 926.3993,0 0,-746.1644 c -207.7986,-6.3375 -288.6101,-65.5896 -394.1448,-114.5371 z"
         style="opacity:1;fill:#ffffff;fill-opacity:1;stroke:none;stroke-width:2.5;stroke-linecap:round;stroke-linejoin:miter;stroke-miterlimit:4;stroke-dasharray:none;stroke-dashoffset:0;stroke-opacity:1"
         inkscape:connector-curvature="0" />
      <path
         id="path4191-1"
         d="m 1169.382,7431.4385 c -57.5149,31.4736 -119.767,55.239 -186.95947,70.9865 l 0,250.7255 -286.02251,0 c 19.98579,87.9716 23.52341,180.1844 7.25157,286.3324 l 282.13847,0 0,252.6571 284.65894,0 0,-259.3922 293.0778,0 0,-281.2811 -291.394,0 0,-270.1352 c -35.2127,-16.2338 -67.6494,-33.6128 -102.7508,-49.893 z"
         style="opacity:1;fill:#dc0030;fill-opacity:1;fill-rule:evenodd;stroke:none;stroke-width:1px;stroke-linecap:butt;stroke-linejoin:miter;stroke-opacity:1"
         inkscape:connector-curvature="0" />
      <path
         sodipodi:nodetypes="cccccc"
         inkscape:connector-curvature="0"
         id="path4182-6"
         d="m 601.75627,7512.2834 c 124.96331,233.8011 157.89446,433.7292 35.37144,779.8566 l 926.39559,-1.6843 0,-744.4851 c -207.7986,-6.3375 -288.6046,-65.5887 -394.1392,-114.5362 -153.9503,84.2455 -341.81683,113.3771 -567.62783,80.849 z"
         style="opacity:1;fill:none;fill-rule:evenodd;stroke:#000000;stroke-width:13.22217464;stroke-linecap:butt;stroke-linejoin:miter;stroke-miterlimit:4;stroke-dasharray:none;stroke-opacity:1" />
      <path
         id="path4214"
         d="m 1664.945,7535.1912 c -32.6886,5.3203 -65.6974,8.7486 -99.7344,10.7844 l -1.6838,744.4807 101.4182,0 0,-755.2651 z"
         style="opacity:1;fill:#ffee02;fill-opacity:1;fill-rule:evenodd;stroke:none;stroke-width:1px;stroke-linecap:butt;stroke-linejoin:miter;stroke-opacity:1"
         inkscape:connector-curvature="0" />
      <path
         id="path4216"
         d="m 1766.3735,7511.7012 c -33.9702,10.3135 -67.5353,17.9737 -101.4285,23.49 l 0,54.1903 0,701.0748 101.4285,0 0,-778.7551 z"
         style="opacity:1;fill:#dc0030;fill-opacity:1;fill-rule:evenodd;stroke:none;stroke-width:1px;stroke-linecap:butt;stroke-linejoin:miter;stroke-opacity:1"
         inkscape:connector-curvature="0" />
      <path
         id="path4218-3"
         d="m 1867.7918,7473.0987 c -34.6858,15.8452 -68.2682,28.5381 -101.4183,38.6025 l 0,77.6803 0,701.0748 101.4183,0 0,-817.3576 z"
         style="opacity:1;fill:#ffee02;fill-opacity:1;fill-rule:evenodd;stroke:none;stroke-width:1px;stroke-linecap:butt;stroke-linejoin:miter;stroke-opacity:1"
         inkscape:connector-curvature="0" />
      <path
         id="path4220"
         d="m 1957.6612,7426.3768 c -31.0458,18.089 -60.83,33.456 -89.8694,46.7219 l 0,116.2828 0,701.0748 101.4182,0 0,-856.9828 c -3.9053,-2.3293 -7.7577,-4.6957 -11.5488,-7.0967 z"
         style="opacity:1;fill:#dc0030;fill-opacity:1;fill-rule:evenodd;stroke:none;stroke-width:1px;stroke-linecap:butt;stroke-linejoin:miter;stroke-opacity:1"
         inkscape:connector-curvature="0" />
      <path
         id="path4224"
         d="m 1969.21,7433.4735 0,155.908 0,701.0748 101.4285,0 0,-810.0544 c -37.7449,-13.1693 -71.3105,-28.9651 -101.4285,-46.9284 z"
         style="opacity:1;fill:#ffee02;fill-opacity:1;fill-rule:evenodd;stroke:none;stroke-width:1px;stroke-linecap:butt;stroke-linejoin:miter;stroke-opacity:1"
         inkscape:connector-curvature="0" />
      <path
         id="path4226-6"
         d="m 2070.6385,7480.4019 0,108.9796 0,701.0748 101.4182,0 0,-783.3105 c -36.8554,-6.9966 -70.5602,-15.9776 -101.4182,-26.7439 z"
         style="opacity:1;fill:#dc0030;fill-opacity:1;fill-rule:evenodd;stroke:none;stroke-width:1px;stroke-linecap:butt;stroke-linejoin:miter;stroke-opacity:1"
         inkscape:connector-curvature="0" />
      <path
         id="path4228"
         d="m 2172.0567,7507.1458 0,82.2357 0,701.0748 101.4286,0 0,-769.9334 c -36.3215,-2.8823 -70.0104,-7.4128 -101.4286,-13.3771 z"
         style="opacity:1;fill:#ffee02;fill-opacity:1;fill-rule:evenodd;stroke:none;stroke-width:1px;stroke-linecap:butt;stroke-linejoin:miter;stroke-opacity:1"
         inkscape:connector-curvature="0" />
      <path
         id="path4230"
         d="m 2273.4853,7520.5229 0,68.8586 0,701.0748 101.4182,0 0,-766.2044 c -35.878,0.063 -69.6508,-1.2082 -101.4182,-3.729 z"
         style="opacity:1;fill:#dc0030;fill-opacity:1;fill-rule:evenodd;stroke:none;stroke-width:1px;stroke-linecap:butt;stroke-linejoin:miter;stroke-opacity:1"
         inkscape:connector-curvature="0" />
      <path
         id="path4232-5"
         d="m 2521.9175,7517.3413 c -52.6818,4.6134 -101.545,6.831 -147.014,6.9106 l 0,65.1296 0,701.0748 116.696,0 c -34.9944,-132.0628 -185.3412,-348.8397 30.318,-773.115 z"
         style="opacity:1;fill:#ffee02;fill-opacity:1;fill-rule:evenodd;stroke:none;stroke-width:1px;stroke-linecap:butt;stroke-linejoin:miter;stroke-opacity:1"
         inkscape:connector-curvature="0" />
      <path
         sodipodi:nodetypes="cccccc"
         inkscape:connector-curvature="0"
         id="path4184"
         d="m 1565.2076,7545.9706 c 132.6007,-7.9308 249.6782,-36.3997 392.4549,-119.5893 117.7156,74.5515 289.6858,115.0001 564.2591,90.9552 -215.6592,424.2753 -65.3127,641.0564 -30.3184,773.1192 l -928.0799,0 z"
         style="opacity:1;fill:none;fill-rule:evenodd;stroke:#000000;stroke-width:13.22217464;stroke-linecap:butt;stroke-linejoin:miter;stroke-miterlimit:4;stroke-dasharray:none;stroke-opacity:1" />
      <path
         inkscape:connector-curvature="0"
         id="path4305"
         d="m 1143.2992,8338.6909 0,253.8657 51.5665,0 0,-106.4385 73.3831,0 0,-51.5665 -72.722,0 0,-42.3109 126.9329,0 0,-54.2109 z"
         style="opacity:1;fill:#000000;fill-rule:evenodd;stroke:none;stroke-width:1px;stroke-linecap:butt;stroke-linejoin:miter;stroke-opacity:1" />
      <path
         sodipodi:nodetypes="cczzcccczzc"
         inkscape:connector-curvature="0"
         id="path4307"
         d="m 1593.5143,8415.3795 46.9387,-23.7999 c 0,0 -21.917,-56.8554 -102.4719,-56.8554 -80.5548,0 -111.3299,80.2811 -107.0996,142.1384 4.2304,61.8573 33.193,124.2884 116.3552,124.2884 41.5123,0 62.9218,-11.5033 89.9107,-63.4664 l -40.9887,-24.461 c -16.6983,23.8396 -25.483,29.0887 -50.9054,29.0887 -38.6445,0 -57.9191,-38.6864 -59.4998,-78.0108 -1.5806,-39.3244 23.6588,-77.3497 53.5498,-77.3497 29.891,0 39.5863,11.5196 54.211,28.4277 z"
         style="opacity:1;fill:#000000;fill-rule:evenodd;stroke:none;stroke-width:1px;stroke-linecap:butt;stroke-linejoin:miter;stroke-opacity:1" />
      <path
         sodipodi:nodetypes="ccccscccccsccccccccc"
         inkscape:connector-curvature="0"
         id="path4309"
         d="m 1774.813,8334.6782 0,260.859 149.5965,0 c 1.6599,2.7665 60.3055,-23.7054 60.3055,-77.1327 0,-49.4539 -28.316,-57.5568 -28.5206,-63.1153 -0.1782,-4.8474 21.0418,-22.4533 21.0418,-57.4958 0,-52.9531 -55.1612,-62.6428 -55.1612,-62.6428 z m 53.4362,55.4815 75.3457,0 c 0,0 13.4495,3.1618 14.1312,18.8416 0.6817,15.6798 -13.1809,21.1968 -13.1809,21.1968 l -76.296,0 z m 0.5785,93.8671 83.7541,0 c 6.5395,4.0424 14.9774,12.1453 15.7117,27.2914 -0.3765,19.0615 -7.496,23.0701 -14.658,30.7105 l -84.8078,0 z"
         style="opacity:1;fill:#000000;fill-rule:evenodd;stroke:none;stroke-width:1px;stroke-linecap:butt;stroke-linejoin:miter;stroke-opacity:1" />
      <path
         id="path4322"
         d="m 835.65639,8643.2197 0,149.5862 -1.36353,549.247 c 82.53842,60.9227 181.30284,107.734 293.06744,138.2647 l 0,-837.0979 -291.70391,0 z"
         style="opacity:1;fill:#a50044;fill-opacity:1;fill-rule:evenodd;stroke:none;stroke-width:1px;stroke-linecap:butt;stroke-linejoin:miter;stroke-opacity:1"
         inkscape:connector-curvature="0" />
      <path
         id="path4324"
         d="m 572.00829,8643.2197 c -51.84537,300.3882 53.68641,545.5605 263.6481,699.8146 l 0,-699.8146 -263.6481,0 z"
         style="opacity:1;fill:#004e98;fill-opacity:1;fill-rule:evenodd;stroke:none;stroke-width:1px;stroke-linecap:butt;stroke-linejoin:miter;stroke-opacity:1"
         inkscape:connector-curvature="0" />
      <path
         id="path4326"
         d="m 1710.7681,8643.2197 0,149.5862 -1.7974,727.3951 87.8138,0 c 74.5976,-11.0966 143.0418,-25.7736 205.6875,-43.819 l 0,-833.1623 -291.7039,0 z"
         style="opacity:1;fill:#004e98;fill-opacity:1;fill-rule:evenodd;stroke:none;stroke-width:1px;stroke-linecap:butt;stroke-linejoin:miter;stroke-opacity:1"
         inkscape:connector-curvature="0" />
      <path
         id="path4328"
         d="m 1419.0642,8643.2197 0,149.5862 -1.7974,727.3951 293.5013,0 0,-876.9813 -291.7039,0 z"
         style="opacity:1;fill:#a50044;fill-opacity:1;fill-rule:evenodd;stroke:none;stroke-width:1px;stroke-linecap:butt;stroke-linejoin:miter;stroke-opacity:1"
         inkscape:connector-curvature="0" />
      <path
         id="path4334"
         d="m 2294.1759,8643.2197 0,149.5862 -1.3636,549.3606 c 220.8837,-157.3741 297.0732,-398.8657 272.5008,-698.9468 l -271.1372,0 z"
         style="opacity:1;fill:#004e98;fill-opacity:1;fill-rule:evenodd;stroke:none;stroke-width:1px;stroke-linecap:butt;stroke-linejoin:miter;stroke-opacity:1"
         inkscape:connector-curvature="0" />
      <path
         id="path4336"
         d="m 2002.472,8643.2197 0,149.5862 -1.6941,684.0512 c 117.5989,-33.7054 214.7171,-79.319 293.398,-135.6512 l 0,-697.9862 -291.7039,0 z"
         style="opacity:1;fill:#a50044;fill-opacity:1;fill-rule:evenodd;stroke:none;stroke-width:1px;stroke-linecap:butt;stroke-linejoin:miter;stroke-opacity:1"
         inkscape:connector-curvature="0" />
      <path
         id="path4338-6"
         d="m 1127.3603,8643.2197 0,149.5862 -1.7044,687.0572 c 81.3417,22.3663 169.5845,36.1026 263.4932,40.3379 l 29.9151,0 0,-876.9813 -291.7039,0 z"
         style="opacity:1;fill:#004e98;fill-opacity:1;fill-rule:evenodd;stroke:none;stroke-width:1px;stroke-linecap:butt;stroke-linejoin:miter;stroke-opacity:1"
         inkscape:connector-curvature="0" />
      <path
         sodipodi:nodetypes="ccccc"
         inkscape:connector-curvature="0"
         id="path4320"
         d="m 572.00501,8643.2163 1993.31109,0 c 37.9397,463.3248 -164.1761,787.0825 -768.528,876.982 l -407.6377,0 C 840.57096,9495.4571 485.06699,9146.9286 572.00501,8643.2163 Z"
         style="opacity:1;fill:none;fill-rule:evenodd;stroke:#000000;stroke-width:13.22217464;stroke-linecap:butt;stroke-linejoin:miter;stroke-miterlimit:4;stroke-dasharray:none;stroke-opacity:1" />
      <ellipse
         ry="269.73233"
         rx="269.73236"
         cy="9068.5547"
         cx="1571.6976"
         id="path4363"
         style="opacity:1;fill:#edbb01;fill-opacity:1;stroke:#000000;stroke-width:13.22217464;stroke-linecap:round;stroke-linejoin:miter;stroke-miterlimit:4;stroke-dasharray:none;stroke-dashoffset:0;stroke-opacity:1" />
      <path
         inkscape:connector-curvature="0"
         id="path4374"
         d="m 1556.4283,8793.7862 c -24.2943,30.1067 -31.0468,53.4751 -27.1157,72.9183 3.5136,17.3781 14.849,30.2118 26.1448,42.001 -29.5801,37.1547 -40.2519,68.032 -36.5263,94.6522 3.6211,25.8737 20.8272,46.0934 43.4059,63.2805 -21.0641,41.1647 -41.5369,60.4316 -60.4088,65.7597 -18.9951,5.3629 -38.4589,-2.0954 -59.2726,-17.1062 l -1.9833,-2.0143 c -21.0882,-21.4294 -38.6576,-45.2129 -44.5525,-84.9628 -5.8948,-39.7501 0.2565,-95.923 28.9132,-180.6686 l -12.5197,-4.2353 c -29.0386,85.8746 -35.8342,144.0073 -29.4814,186.8459 5.9692,40.2512 23.9917,66.402 44.3769,87.9791 -19.9327,27.9969 -36.912,39.6142 -52.775,44.6661 -16.7018,5.3191 -33.2351,3.708 -51.8557,5.9603 l -8.3259,1.0124 2.9233,7.861 c 23.2485,62.37 57.868,84.2732 88.444,111.0869 l 2.3449,2.0556 3.0783,-0.5061 c 62.3573,-10.1839 123.049,-22.6041 174.4604,-46.3086 50.2251,-23.1575 91.4161,-57.737 115.5184,-110.7873 17.2946,-3.2433 33.6106,-5.3359 49.9137,0.3824 17.2215,6.0398 35.485,20.7953 55.3059,54.3865 l 4.0389,6.8487 5.9913,-5.2269 c 6.4848,-5.6495 13.2084,-14.1724 18.7693,-30.6899 5.561,-16.5176 10.4327,-41.2966 14.5444,-81.3784 l 0.2994,-2.975 -2.035,-2.2002 c -36.2214,-39.0879 -67.6271,-85.2438 -109.961,-120.1668 -41.7312,-34.426 -94.591,-57.3741 -171.2271,-50.7401 -11.6098,-12.1037 -21.8077,-23.6376 -24.5953,-37.425 -2.96,-14.6399 1.4679,-33.5288 24.4507,-62.0099 l -10.2886,-8.2949 z m 36.7432,119.8364 c 8.1978,-0.063 16.055,0.2443 23.552,0.9606 47.4887,4.5369 82.6675,22.8901 112.9463,47.8684 39.5714,32.6441 70.4106,77.0139 106.5832,116.4997 -3.9879,37.6265 -8.6617,61.3029 -13.5424,75.8003 -3.3253,9.8769 -6.5633,15.0907 -9.8444,19.1618 -19.1103,-29.8685 -38.1656,-46.0014 -57.3615,-52.7337 -18.8388,-6.6071 -36.9703,-4.5824 -54.1283,-1.4669 -12.2164,-33.0598 -27.2955,-59.0432 -48.8497,-72.0815 -11.3516,-6.8666 -24.2779,-9.6034 -38.5819,-7.768 -13.1565,1.6882 -27.4928,7.3014 -42.8171,17.0856 -21.5523,-16.1875 -36.0881,-33.911 -39.0984,-55.4196 -3.1068,-22.1985 6.0497,-50.1844 35.5656,-86.6362 8.8404,-0.7749 17.3788,-1.2078 25.5766,-1.2705 z m 30.3594,138.5848 c 8.1201,0.2724 15.4059,2.6614 22.1575,6.7454 17.5599,10.6222 32.2992,34.8878 44.2529,67.9496 -22.5614,50.5305 -61.1284,82.7327 -109.7647,105.1576 -48.603,22.4096 -107.2183,34.6503 -168.1488,44.6868 -28.986,-25.0373 -57.0738,-44.8082 -78.2691,-95.3546 14.0752,-0.8447 28.7276,-0.7429 44.8831,-5.888 18.3911,-5.857 37.678,-19.6248 58.3738,-48.1473 21.8667,15.3042 44.9551,24.4168 68.5074,17.7673 24.7722,-6.9939 47.8684,-30.3024 70.3564,-75.5007 18.9742,-12.644 34.4306,-17.8593 47.6515,-17.4161 z"
         style="color:#000000;font-style:normal;font-variant:normal;font-weight:normal;font-stretch:normal;font-size:medium;line-height:normal;font-family:sans-serif;text-indent:0;text-align:start;text-decoration:none;text-decoration-line:none;text-decoration-style:solid;text-decoration-color:#000000;letter-spacing:normal;word-spacing:normal;text-transform:none;direction:ltr;block-progression:tb;writing-mode:lr-tb;baseline-shift:baseline;text-anchor:start;white-space:normal;clip-rule:nonzero;display:inline;overflow:visible;visibility:visible;opacity:1;isolation:auto;mix-blend-mode:normal;color-interpolation:sRGB;color-interpolation-filters:linearRGB;solid-color:#000000;solid-opacity:1;fill:#000000;fill-opacity:1;fill-rule:evenodd;stroke:none;stroke-width:2.5;stroke-linecap:butt;stroke-linejoin:miter;stroke-miterlimit:4;stroke-dasharray:none;stroke-dashoffset:0;stroke-opacity:1;color-rendering:auto;image-rendering:auto;shape-rendering:auto;text-rendering:auto;enable-background:accumulate" />
    </g>
  </g>
</svg>
